<?xml version="1.0" standalone="no"?>
<!DOCTYPE svg PUBLIC "-//W3C//DTD SVG 20010904//EN"
 "http://www.w3.org/TR/2001/REC-SVG-20010904/DTD/svg10.dtd">
<svg version="1.0" xmlns="http://www.w3.org/2000/svg"
 width="400.000000pt" height="350.000000pt" viewBox="0 0 400.000000 350.000000"
 preserveAspectRatio="xMidYMid meet">

<g transform="translate(0.000000,350.000000) scale(0.100000,-0.100000)"
fill="#000000" stroke="none">
<path d="M1930 3461 c-82 -33 -98 -46 -267 -218 -92 -94 -188 -183 -212 -198
-56 -35 -220 -193 -257 -248 -15 -23 -38 -53 -49 -67 -12 -14 -28 -41 -35 -60
-7 -19 -21 -54 -31 -77 -11 -24 -19 -48 -19 -54 0 -6 -9 -22 -20 -36 -11 -14
-20 -34 -20 -44 0 -22 -33 -97 -67 -151 -33 -55 -88 -226 -113 -358 -31 -163
-70 -285 -105 -330 -6 -8 -18 -31 -25 -50 -7 -19 -30 -71 -51 -115 -21 -44
-43 -107 -49 -140 -6 -33 -16 -83 -22 -111 -6 -28 -9 -103 -6 -165 4 -102 7
-120 32 -166 36 -65 88 -131 189 -238 63 -67 87 -85 129 -99 27 -9 61 -16 73
-16 13 0 46 -5 74 -12 48 -11 51 -13 51 -42 0 -120 106 -212 380 -328 14 -6
34 -15 44 -20 77 -40 307 -98 417 -105 82 -6 93 -4 215 37 71 23 157 55 191
71 33 15 87 35 120 44 170 48 278 98 321 151 37 44 52 106 52 208 l0 73 68 21
c37 11 90 26 117 33 90 23 149 55 223 124 81 75 84 79 118 174 21 57 24 84 24
193 0 74 -4 129 -10 133 -5 3 -10 33 -10 66 0 86 -41 196 -161 430 -10 20 -32
72 -49 115 -18 44 -38 95 -47 114 -8 19 -21 49 -28 66 -23 54 -75 236 -75 264
0 95 -153 413 -285 590 -14 19 -45 62 -69 96 -61 85 -162 190 -221 230 -52 36
-175 124 -234 168 -19 14 -41 26 -49 26 -7 0 -25 9 -39 20 -34 27 -148 27
-213 1z m224 -63 c76 -45 228 -150 223 -154 -2 -3 -38 17 -81 42 -122 75 -97
46 35 -40 123 -81 156 -114 52 -54 -59 35 -143 72 -143 63 0 -3 24 -17 53 -31
75 -38 188 -106 184 -111 -2 -2 -46 17 -98 41 -145 69 -159 64 -19 -6 69 -35
154 -83 190 -108 78 -52 166 -143 198 -202 l23 -43 -28 35 c-74 95 -191 189
-308 247 -78 39 -89 34 -15 -7 224 -125 317 -231 466 -535 49 -102 88 -200
120 -305 26 -85 53 -168 60 -185 7 -16 19 -46 27 -65 9 -19 29 -70 47 -114 17
-43 39 -95 50 -115 47 -88 131 -273 128 -283 -3 -9 -128 241 -162 326 -9 22
-19 37 -22 34 -3 -3 6 -33 20 -67 33 -77 33 -90 0 -28 -34 66 -40 54 -9 -16
13 -32 21 -57 16 -57 -4 0 -16 18 -26 40 -10 22 -22 40 -27 40 -4 0 1 -18 12
-41 12 -22 19 -46 17 -52 -2 -7 -11 2 -20 20 -9 17 -22 35 -28 39 -8 4 -7 0 1
-15 6 -12 10 -27 8 -33 -9 -27 -153 251 -213 412 -15 41 -43 111 -61 156 -18
44 -38 93 -44 109 -6 15 -13 26 -16 23 -2 -3 9 -42 26 -88 17 -46 29 -85 27
-87 -4 -3 -105 213 -127 271 -6 16 -13 26 -16 23 -6 -6 37 -143 67 -214 10
-24 14 -43 9 -43 -12 0 -75 133 -90 190 -6 25 -25 88 -42 140 -16 52 -32 101
-34 109 -3 8 -7 11 -10 9 -3 -3 2 -43 10 -88 19 -96 19 -97 7 -85 -5 6 -28 60
-51 120 -23 61 -48 116 -55 124 -10 10 -8 -2 5 -38 11 -28 27 -98 36 -154 22
-135 55 -208 137 -295 74 -79 86 -99 117 -202 28 -91 92 -229 189 -410 95
-176 142 -246 239 -353 68 -75 144 -187 128 -187 -3 0 -23 26 -44 58 -44 64
-132 165 -139 158 -2 -2 24 -39 59 -82 73 -91 113 -152 104 -161 -3 -4 -7 -4
-9 -2 -55 87 -109 156 -158 204 -65 62 -54 45 42 -70 59 -69 123 -177 117
-196 -2 -6 -16 13 -31 42 -27 53 -94 141 -189 249 -78 88 -62 52 19 -45 114
-137 174 -231 172 -273 0 -9 -10 6 -23 33 -30 65 -125 190 -221 290 -88 92
-74 68 39 -66 138 -164 186 -255 186 -356 0 -79 -90 -150 -230 -183 -30 -7
-65 -16 -78 -21 -36 -14 -50 -10 -22 7 19 11 20 14 5 10 -30 -7 -165 -47 -183
-54 -10 -3 -13 -1 -8 6 3 6 45 25 93 43 98 38 97 52 -3 19 -36 -12 -68 -19
-71 -16 -6 6 74 44 142 67 22 7 33 14 25 16 -8 2 -42 -6 -74 -17 -65 -22 -80
-24 -72 -11 4 5 39 22 78 37 119 45 55 41 -72 -4 -13 -5 -13 -3 -2 10 7 9 42
26 77 39 36 12 65 26 65 30 0 7 -29 0 -110 -26 -22 -7 -23 -6 -12 8 8 9 36 23
63 32 54 18 79 40 32 29 -15 -4 -38 -11 -51 -15 -32 -12 -36 -11 -23 5 6 7 33
22 58 31 54 21 43 33 -13 15 -53 -18 -54 -3 -1 20 56 25 60 33 11 24 -44 -8
-40 7 6 26 16 7 30 17 30 22 0 6 -7 7 -15 4 -8 -3 -22 -9 -30 -12 -28 -11 -15
15 15 31 37 19 39 28 5 19 -15 -4 -25 -2 -25 5 0 6 4 11 8 11 5 0 17 7 28 16
18 15 18 15 -3 9 -31 -9 -29 9 2 23 32 15 85 15 105 2 13 -9 9 -15 -20 -40
-34 -30 -28 -40 12 -19 33 17 35 0 3 -27 -22 -18 -24 -24 -10 -19 55 19 60 16
25 -14 -37 -33 -27 -40 20 -16 42 22 38 0 -5 -27 -47 -31 -44 -43 5 -18 49 25
52 10 5 -26 -45 -34 -39 -41 14 -14 50 25 54 11 6 -26 -45 -34 -38 -44 10 -15
41 24 45 25 45 11 0 -5 -18 -22 -40 -36 -51 -34 -43 -45 10 -15 22 12 40 18
40 13 0 -10 -37 -45 -65 -60 -14 -8 -15 -11 -5 -12 8 0 35 11 59 25 23 14 45
25 47 25 14 0 -23 -45 -58 -70 -23 -17 -34 -30 -26 -30 26 0 108 59 128 92 53
87 11 180 -205 453 -300 378 -343 431 -427 520 -143 154 -249 304 -278 394
-17 54 -24 92 -34 176 -2 17 -6 53 -10 80 -3 28 -8 75 -10 105 -12 143 -101
319 -176 350 -51 21 -73 -8 -195 -247 -132 -261 -147 -283 -270 -413 -127
-135 -195 -297 -211 -509 -11 -149 -29 -211 -99 -348 -70 -136 -153 -288 -196
-363 -15 -25 -37 -75 -49 -112 -31 -94 -19 -144 57 -227 30 -34 60 -61 66 -61
6 0 -3 15 -20 33 -31 32 -68 95 -61 103 3 2 20 -12 38 -31 19 -19 38 -35 44
-35 5 0 -2 12 -16 27 -25 27 -68 104 -68 120 1 4 16 -10 35 -32 18 -22 37 -36
41 -32 4 4 -3 18 -15 31 -21 23 -47 93 -38 103 3 2 13 -9 23 -26 23 -38 40
-41 21 -4 -8 16 -18 39 -22 53 -7 25 -7 25 26 -6 19 -16 60 -47 92 -68 63 -40
74 -61 13 -25 -20 11 -36 17 -36 12 0 -5 15 -17 33 -27 17 -10 44 -30 59 -44
35 -32 45 -25 14 9 -12 13 -21 29 -19 36 2 6 -28 39 -67 73 -65 59 -82 80 -62
80 5 0 28 -17 52 -37 45 -39 42 -17 -4 26 -32 30 -33 45 -4 35 19 -6 21 -5 11
8 -19 22 8 127 61 241 49 104 77 195 121 397 41 190 78 290 170 460 46 85 85
162 87 170 2 8 19 40 39 70 20 31 71 121 114 200 90 170 88 166 136 191 85 43
201 9 231 -68 19 -49 25 -82 38 -223 20 -211 47 -293 150 -445 28 -41 50 -79
50 -85 0 -37 96 -150 193 -228 70 -55 160 -161 164 -191 1 -9 9 -39 17 -67 33
-118 29 -280 -10 -409 -9 -27 -53 -129 -99 -225 -58 -122 -91 -207 -110 -280
-45 -179 -99 -241 -260 -301 -33 -12 -105 -42 -160 -68 -97 -44 -103 -46 -200
-46 -91 0 -106 3 -165 31 -73 35 -100 52 -218 142 -85 65 -142 131 -142 164 0
21 -5 22 -124 6 -50 -6 -97 -17 -105 -24 -13 -12 -9 -19 26 -52 23 -21 85 -62
137 -91 95 -52 119 -69 71 -51 -62 23 -190 102 -232 143 -63 59 -43 82 88 101
l94 13 -35 13 c-77 29 -208 102 -262 144 -64 51 -107 117 -115 175 -7 55 24
143 103 286 128 231 166 306 161 312 -3 3 -15 -15 -28 -39 -20 -40 -83 -151
-116 -206 -8 -13 -16 -22 -19 -20 -2 3 23 64 57 137 33 73 58 135 55 138 -5 5
-116 -219 -116 -235 0 -5 -8 -16 -17 -23 -15 -12 -16 -12 -9 6 44 106 107 310
92 294 -2 -2 -25 -62 -51 -134 -26 -71 -53 -141 -61 -155 -24 -44 -15 2 20
105 36 106 70 254 80 345 3 33 -6 4 -24 -73 -16 -70 -56 -212 -89 -316 -33
-103 -64 -223 -70 -267 -20 -143 13 -241 111 -335 71 -68 67 -75 -12 -21 -101
70 -150 172 -150 316 -1 64 -3 77 -12 62 -15 -26 -4 -178 17 -241 10 -27 28
-64 41 -82 13 -17 24 -35 24 -39 0 -16 -72 62 -90 97 -27 53 -44 161 -36 237
9 82 -1 77 -15 -8 -12 -77 2 -185 33 -248 24 -51 19 -64 -11 -26 -36 46 -53
126 -53 248 0 83 -2 105 -10 86 -5 -14 -8 -76 -6 -138 2 -61 1 -112 -2 -112
-3 0 -14 28 -24 62 -14 47 -17 80 -12 138 4 58 3 69 -5 50 -6 -14 -12 -60 -12
-102 -1 -43 -5 -78 -9 -78 -13 0 -20 65 -16 148 2 45 0 82 -3 82 -8 0 -19 -54
-19 -96 0 -18 -4 -36 -10 -39 -6 -4 -10 26 -11 82 0 94 -17 92 -19 -2 0 -41
-3 -47 -11 -31 -14 23 -6 191 14 303 18 97 87 248 181 392 83 128 128 209 124
221 -2 6 -22 -23 -46 -62 -24 -40 -52 -84 -63 -98 -17 -22 -16 -17 5 32 14 32
38 77 54 100 35 52 55 88 47 88 -2 0 -21 -25 -41 -55 -20 -30 -39 -55 -41 -55
-11 0 14 50 55 112 25 38 43 71 40 74 -3 2 -20 -18 -38 -46 -18 -28 -35 -49
-37 -46 -5 5 12 38 68 131 18 31 19 37 5 26 -9 -8 -24 -28 -32 -44 -9 -16 -17
-27 -20 -24 -2 2 29 69 69 148 40 79 86 172 101 207 15 35 30 62 32 59 4 -4
-6 -35 -46 -135 -11 -30 -16 -51 -11 -48 5 3 24 41 41 84 31 74 50 107 50 86
0 -13 -63 -171 -84 -212 -10 -19 -15 -36 -12 -39 3 -3 15 15 28 41 12 25 26
46 30 46 13 0 10 -9 -43 -107 -54 -100 -63 -137 -13 -53 49 83 48 56 -1 -35
-50 -91 -54 -110 -11 -44 15 22 30 38 33 35 3 -3 -5 -23 -19 -44 -35 -52 -72
-125 -59 -118 5 4 20 24 32 46 13 22 26 40 31 40 10 0 -60 -141 -108 -216 -20
-30 -34 -58 -31 -60 5 -5 83 100 91 121 2 5 6 7 10 3 10 -8 -49 -134 -102
-220 -45 -73 -43 -95 2 -27 44 66 41 38 -6 -52 -50 -98 -55 -111 -33 -84 29
35 107 197 137 285 49 144 75 254 128 540 27 151 54 284 59 295 9 19 7 -109
-4 -227 -5 -59 11 -63 20 -5 23 138 125 323 254 460 59 62 21 41 -62 -34 -43
-39 -80 -69 -82 -67 -10 9 97 158 138 192 23 20 37 36 31 36 -15 0 -98 -62
-158 -119 -35 -34 -45 -39 -36 -21 52 101 147 183 315 270 157 82 153 93 -5
15 -98 -48 -123 -58 -115 -45 4 6 46 31 93 56 48 25 80 43 72 41 -8 -2 -26 -7
-40 -11 -14 -4 19 16 73 44 53 28 97 52 97 55 0 6 -40 -9 -91 -35 -67 -34 -56
-15 13 22 35 19 75 40 90 48 53 26 19 22 -39 -5 -74 -33 -61 -21 51 49 95 60
101 77 7 24 -36 -21 -51 -26 -42 -14 8 10 48 37 89 61 40 24 67 45 60 47 -7 3
-3 7 10 10 12 4 20 2 16 -3 -3 -5 2 -6 10 -3 9 3 16 10 16 15 0 5 24 9 54 9
43 0 65 -7 110 -32z m341 -238 c12 -19 -12 -10 -31 11 -19 22 -19 22 3 10 12
-6 25 -16 28 -21z m336 -455 c16 -32 16 -35 2 -16 -10 13 -29 43 -41 65 -22
37 -22 39 -2 16 11 -14 30 -43 41 -65z m-1816 -424 c-21 -39 -42 -71 -47 -71
-6 0 3 21 18 48 15 26 34 60 42 75 8 16 16 26 19 23 3 -2 -12 -36 -32 -75z
m1857 -1629 c-18 -9 -70 -36 -115 -59 -137 -69 -144 -89 -52 -150 76 -50 89
-66 75 -92 -18 -34 -179 -106 -302 -135 -59 -14 -23 4 70 35 53 17 123 45 155
61 82 41 78 63 -25 122 -50 28 -70 65 -51 95 14 23 126 89 197 117 72 27 95
30 48 6z m-57 -199 c-4 -29 -10 -53 -14 -53 -4 0 -16 9 -27 21 -10 12 -38 32
-62 46 -26 16 -42 32 -40 41 2 9 35 33 73 53 l70 38 3 -47 c2 -26 1 -71 -3
-99z m-1557 47 c17 0 32 -4 32 -10 0 -5 -12 -10 -27 -10 -16 0 -40 -7 -55 -14
-28 -15 -28 -14 -28 16 0 27 3 30 23 24 12 -3 37 -6 55 -6z m293 -318 c-7 -2
-18 1 -23 6 -8 8 -4 9 13 5 13 -4 18 -8 10 -11z m95 -39 c-5 -5 -76 24 -76 31
0 2 18 -3 40 -11 22 -9 38 -18 36 -20z"/>
<path d="M2380 3036 c0 -2 24 -15 53 -29 141 -65 260 -196 380 -418 45 -82 91
-198 83 -206 -4 -4 -56 87 -106 186 -56 113 -138 236 -183 278 -46 43 -108 82
-170 108 -55 23 -36 0 26 -32 59 -29 120 -73 113 -81 -3 -2 -17 3 -30 12 -14
9 -33 16 -43 16 -11 -1 -4 -8 19 -21 57 -30 105 -83 125 -139 18 -51 38 -70
27 -25 -3 14 -3 25 0 25 6 0 156 -294 156 -305 0 -16 -21 11 -58 73 -72 121
-71 96 2 -50 39 -79 95 -211 124 -293 53 -150 72 -193 72 -167 0 8 -7 39 -16
69 -9 30 -13 57 -10 60 3 3 22 -29 42 -71 20 -42 39 -74 42 -72 2 3 -8 36 -23
74 -29 75 -30 120 -2 65 19 -36 45 -58 33 -27 -5 10 -26 77 -48 148 -99 326
-246 590 -397 710 -76 62 -211 133 -211 112z"/>
<path d="M1733 2828 c-17 -29 -49 -88 -72 -130 -24 -43 -46 -78 -51 -78 -5 0
3 36 19 81 42 118 12 74 -49 -71 -29 -69 -54 -127 -56 -129 -14 -15 -10 17 12
93 14 49 23 91 20 94 -6 6 -36 -60 -36 -79 0 -20 -71 -159 -81 -159 -10 0 -6
23 17 104 8 27 14 52 14 55 -1 13 -25 -37 -47 -98 -13 -36 -37 -88 -53 -117
-31 -56 -65 -162 -75 -236 -7 -52 0 -63 15 -24 5 14 66 95 134 180 155 191
180 230 245 380 29 66 61 132 72 147 21 29 23 39 11 39 -4 0 -22 -24 -39 -52z"/>
<path d="M1722 2641 c-19 -45 -72 -138 -118 -207 -46 -69 -84 -130 -84 -136 0
-15 157 197 181 244 30 59 61 147 57 164 -2 9 -18 -20 -36 -65z"/>
<path d="M1744 2573 c-31 -59 -66 -123 -76 -140 -25 -43 -10 -43 18 0 68 102
132 233 120 244 -2 3 -30 -44 -62 -104z"/>
<path d="M2465 2560 c20 -172 75 -345 115 -358 12 -4 11 0 -3 21 -26 40 -64
161 -82 267 -20 109 -39 155 -30 70z"/>
<path d="M1316 2428 c-59 -123 -61 -128 -47 -128 12 0 113 219 108 233 -3 7
-30 -41 -61 -105z"/>
<path d="M2375 2370 c5 -125 19 -186 58 -251 45 -75 62 -73 22 3 -32 59 -40
92 -75 288 -8 49 -9 45 -5 -40z"/>
<path d="M2431 2393 c-1 -65 16 -147 40 -195 28 -54 42 -47 18 9 -11 25 -25
78 -31 117 -16 107 -26 133 -27 69z"/>
<path d="M1392 2173 c-77 -117 -139 -276 -157 -398 -11 -81 8 -41 49 99 37
128 79 227 138 319 17 26 28 50 26 53 -3 2 -28 -30 -56 -73z"/>
<path d="M2380 2084 c0 -17 120 -168 127 -160 5 4 -116 166 -124 166 -1 0 -3
-3 -3 -6z"/>
<path d="M1367 2003 c-43 -84 -72 -171 -82 -243 -4 -29 -18 -85 -31 -123 -13
-39 -22 -73 -19 -75 10 -11 64 125 70 177 9 77 31 152 71 245 19 43 33 81 30
83 -3 3 -20 -26 -39 -64z"/>
<path d="M2742 1985 c23 -46 61 -166 54 -172 -7 -8 -6 -9 -34 51 -13 26 -25
46 -28 43 -3 -3 1 -18 9 -34 18 -34 40 -113 34 -119 -3 -3 -14 12 -26 32 -26
43 -40 40 -17 -5 23 -43 20 -58 -6 -35 -24 21 -24 23 13 -66 28 -68 68 -134
77 -126 3 4 0 12 -6 18 -7 7 -12 21 -12 32 0 17 6 14 31 -17 35 -42 53 -43 20
-1 -11 15 -21 31 -21 35 0 18 15 8 35 -21 11 -16 26 -32 33 -35 14 -5 10 3
-21 46 -10 15 -17 34 -15 44 2 13 9 9 28 -21 14 -20 31 -40 39 -42 8 -3 3 10
-12 29 -14 19 -49 93 -77 164 -72 183 -81 204 -98 218 -13 11 -13 8 0 -18z"/>
<path d="M1242 1983 c-5 -10 -12 -31 -16 -48 -4 -16 -9 -38 -12 -47 -3 -10 -1
-18 5 -18 6 0 15 19 21 43 6 23 15 52 20 65 11 26 -5 31 -18 5z"/>
<path d="M1330 1698 c-12 -51 -24 -99 -27 -105 -2 -7 0 -13 5 -13 14 0 39 67
47 125 4 28 9 58 12 68 2 9 0 17 -5 17 -5 0 -19 -42 -32 -92z"/>
<path d="M956 1373 c-21 -76 -41 -144 -44 -152 -3 -9 -1 -12 6 -7 19 11 99
296 84 296 -4 0 -25 -62 -46 -137z"/>
<path d="M883 1285 c-17 -44 -34 -94 -38 -110 l-6 -30 15 26 c24 42 67 162 63
179 -1 8 -17 -21 -34 -65z"/>
<path d="M822 1247 c-25 -66 -25 -67 -13 -67 12 0 44 96 38 113 -2 6 -13 -14
-25 -46z"/>
<path d="M780 1270 c-20 -38 -39 -100 -31 -100 11 0 56 109 48 116 -3 3 -11
-4 -17 -16z"/>
<path d="M724 1244 c-4 -10 -9 -22 -11 -26 -2 -5 0 -8 6 -8 11 0 26 39 17 47
-3 3 -9 -3 -12 -13z"/>
<path d="M1251 783 c1 -10 129 -93 129 -84 0 13 -44 48 -87 70 -24 12 -43 18
-42 14z"/>
<path d="M1280 716 c0 -4 99 -66 106 -66 13 0 -11 23 -47 45 -35 22 -59 31
-59 21z"/>
<path d="M1306 652 c16 -15 104 -63 104 -57 0 10 -83 65 -99 65 -9 0 -11 -3
-5 -8z"/>
<path d="M1320 595 c0 -2 24 -17 52 -31 38 -19 49 -22 39 -10 -23 27 -91 58
-91 41z"/>
<path d="M1330 542 c0 -4 25 -20 55 -35 55 -27 71 -27 38 0 -16 12 -80 43 -89
43 -2 0 -4 -4 -4 -8z"/>
</g>
</svg>
